<?xml version="1.0" encoding="UTF-8" standalone="no"?>
<!-- Created with Inkscape (http://www.inkscape.org/) -->

<svg
   xmlns:dc="http://purl.org/dc/elements/1.1/"
   xmlns:cc="http://creativecommons.org/ns#"
   xmlns:rdf="http://www.w3.org/1999/02/22-rdf-syntax-ns#"
   xmlns:svg="http://www.w3.org/2000/svg"
   xmlns="http://www.w3.org/2000/svg"
   xmlns:sodipodi="http://sodipodi.sourceforge.net/DTD/sodipodi-0.dtd"
   xmlns:inkscape="http://www.inkscape.org/namespaces/inkscape"
   width="512"
   height="512"
   id="svg2"
   version="1.1"
   inkscape:version="0.48.4 r9939"
   sodipodi:docname="pixotters.svg">
  <defs
     id="defs4" />
  <sodipodi:namedview
     id="base"
     pagecolor="#ffffff"
     bordercolor="#666666"
     borderopacity="1.0"
     inkscape:pageopacity="0.0"
     inkscape:pageshadow="2"
     inkscape:zoom="0.7"
     inkscape:cx="248.6596"
     inkscape:cy="168.08747"
     inkscape:document-units="px"
     inkscape:current-layer="layer1"
     showgrid="false"
     inkscape:window-width="1366"
     inkscape:window-height="719"
     inkscape:window-x="0"
     inkscape:window-y="0"
     inkscape:window-maximized="1" />
  <metadata
     id="metadata7">
    <rdf:RDF>
      <cc:Work
         rdf:about="">
        <dc:format>image/svg+xml</dc:format>
        <dc:type
           rdf:resource="http://purl.org/dc/dcmitype/StillImage" />
        <dc:title></dc:title>
      </cc:Work>
    </rdf:RDF>
  </metadata>
  <g
     inkscape:label="Layer 1"
     inkscape:groupmode="layer"
     id="layer1"
     transform="translate(0,-540.36218)">
    <text
       xml:space="preserve"
       style="font-size:104.21498108px;font-style:normal;font-weight:normal;line-height:125%;letter-spacing:0px;word-spacing:0px;fill:#c87137;fill-opacity:1;stroke:none;font-family:Sans"
       x="215.19643"
       y="718.49921"
       id="text3812"
       sodipodi:linespacing="125%"
       transform="scale(0.70064854,1.4272491)"><tspan
         sodipodi:role="line"
         id="tspan3814"
         x="215.19643"
         y="718.49921"
         style="font-style:normal;font-variant:normal;font-weight:normal;font-stretch:normal;fill:#c87137;font-family:Ubuntu;-inkscape-font-specification:Ubuntu">IXOTTERS</tspan></text>
    <path
       style="fill:#c87137;stroke:#000000;stroke-width:0;stroke-linecap:butt;stroke-linejoin:miter;stroke-miterlimit:4;stroke-opacity:1;stroke-dasharray:none"
       d="m 15.788924,573.63793 51.822769,452.77677 85.355157,0 0,-124.1379 329.22706,0 -27.43559,-341.70602 -100.59716,6.53358 9.14519,61.74229 -240.8235,16.33394 -3.04838,-78.07623 z"
       id="path2985"
       inkscape:connector-curvature="0"
       sodipodi:nodetypes="ccccccccccc" />
    <path
       sodipodi:type="star"
       style="fill:#000000;fill-opacity:1;stroke:#000000;stroke-width:60.18942642;stroke-linejoin:bevel;stroke-miterlimit:4;stroke-opacity:1;stroke-dasharray:none"
       id="path2987"
       sodipodi:sides="3"
       sodipodi:cx="382.85715"
       sodipodi:cy="609.50507"
       sodipodi:r1="48.655392"
       sodipodi:r2="24.327696"
       sodipodi:arg1="1.5120405"
       sodipodi:arg2="2.5592381"
       inkscape:flatsided="false"
       inkscape:rounded="0"
       inkscape:randomized="0"
       d="m 385.71429,658.0765 -23.1749,-35.1914 -23.17491,-35.19139 42.0641,-2.47436 42.06409,-2.47436 -18.88919,37.66576 z"
       inkscape:transform-center-x="1.5689777"
       inkscape:transform-center-y="3.4929109"
       transform="matrix(0.5230753,-0.04869667,0.0338357,0.41738645,69.627675,573.15138)" />
    <path
       style="fill:#000000;fill-opacity:1;stroke:#000000;stroke-width:0.87932253px;stroke-linecap:butt;stroke-linejoin:miter;stroke-opacity:1"
       d="m 237.90835,874.7628 c -22.58754,48.33581 -34.93368,64.4241 -126.27154,80.96272 0,0 193.54355,7.80151 198.32701,-64.72659 -0.68742,-20.85811 -35.07801,-80.70699 -72.05547,-16.23613 z"
       id="path3761"
       inkscape:connector-curvature="0"
       sodipodi:nodetypes="cccc" />
    <a
       id="a3769"
       transform="matrix(1.1848121,-0.12446777,0.11398382,1.0364344,-195.94968,524.11549)">
      <path
         style="fill:#000000;fill-opacity:1;stroke:#000000;stroke-width:0.78896576px;stroke-linecap:butt;stroke-linejoin:miter;stroke-opacity:1"
         d="m 434.21753,375.66645 c 23.28191,43.84065 35.05952,57.94898 112.78724,64.57172 0,0 -160.77218,26.83476 -171.41871,-41.86518 -1.34042,-19.96387 21.8624,-80.49536 58.63147,-22.70654 z"
         id="path3763"
         inkscape:connector-curvature="0"
         sodipodi:nodetypes="cccc" />
    </a>
    <path
       sodipodi:type="arc"
       style="fill:#000000;fill-opacity:1;stroke:#000000;stroke-width:0;stroke-linejoin:bevel;stroke-miterlimit:4;stroke-opacity:1;stroke-dasharray:none"
       id="path3765"
       sodipodi:cx="-157.14285"
       sodipodi:cy="220.93361"
       sodipodi:rx="24.285715"
       sodipodi:ry="18.571428"
       d="m -132.85714,220.93361 a 24.285715,18.571428 0 1 1 -48.57143,0 24.285715,18.571428 0 1 1 48.57143,0 z"
       transform="matrix(1.5898027,0,0,2.2279119,609.96536,215.30803)" />
    <path
       sodipodi:type="arc"
       style="fill:#ffffff;fill-opacity:1;stroke:#000000;stroke-width:0;stroke-linejoin:bevel;stroke-miterlimit:4;stroke-opacity:1;stroke-dasharray:none"
       id="path3767"
       sodipodi:cx="-218.57143"
       sodipodi:cy="228.79076"
       sodipodi:rx="22.857143"
       sodipodi:ry="20.714285"
       d="m -195.71428,228.79076 a 22.857143,20.714285 0 1 1 -45.71429,0 22.857143,20.714285 0 1 1 45.71429,0 z"
       transform="matrix(0.68653011,0,0,0.73571357,523.6571,544.60047)" />
    <path
       sodipodi:type="arc"
       style="fill:#000000;fill-opacity:1;stroke:#000000;stroke-width:0;stroke-linejoin:bevel;stroke-miterlimit:4;stroke-opacity:1;stroke-dasharray:none"
       id="path3765-0"
       sodipodi:cx="-157.14285"
       sodipodi:cy="220.93361"
       sodipodi:rx="24.285715"
       sodipodi:ry="18.571428"
       d="m -132.85714,220.93361 a 24.285715,18.571428 0 1 1 -48.57143,0 24.285715,18.571428 0 1 1 48.57143,0 z"
       transform="matrix(1.5898027,0,0,2.2279119,441.0167,226.98885)" />
    <path
       sodipodi:type="arc"
       style="fill:#ffffff;fill-opacity:1;stroke:#000000;stroke-width:0;stroke-linejoin:bevel;stroke-miterlimit:4;stroke-opacity:1;stroke-dasharray:none"
       id="path3767-5"
       sodipodi:cx="-218.57143"
       sodipodi:cy="228.79076"
       sodipodi:rx="22.857143"
       sodipodi:ry="20.714285"
       d="m -195.71428,228.79076 a 22.857143,20.714285 0 1 1 -45.71429,0 22.857143,20.714285 0 1 1 45.71429,0 z"
       transform="matrix(0.68653011,0,0,0.73571357,354.70843,556.28127)" />
  </g>
</svg>
